<svg version="1.1" id="Layer_1" xmlns="http://www.w3.org/2000/svg" xmlns:xlink="http://www.w3.org/1999/xlink" x="0px" y="0px"
	 width="100%" viewBox="0 0 249 202" enable-background="new 0 0 249 202" xml:space="preserve">
<path fill="#FFFFFF" opacity="1.000000" stroke="none" 
	d="
M159.000000,203.000000 
	C106.000000,203.000000 53.500008,203.000000 1.000007,203.000000 
	C1.000005,135.666672 1.000005,68.333351 1.000002,1.000016 
	C83.999992,1.000011 166.999985,1.000011 249.999969,1.000005 
	C249.999985,68.333321 249.999985,135.666641 250.000000,202.999969 
	C219.833328,203.000000 189.666672,203.000000 159.000000,203.000000 
M204.320099,52.058949 
	C204.203430,44.370838 204.086761,36.682728 204.036545,28.491308 
	C203.957901,28.341475 203.879257,28.191639 203.768509,27.475185 
	C203.254608,26.942760 202.740707,26.410336 201.893768,25.319427 
	C201.286209,25.150295 200.678650,24.981163 199.329971,24.437435 
	C198.671646,24.367136 198.013351,24.235405 197.355011,24.235281 
	C141.837219,24.224821 86.319427,24.220284 30.801643,24.250126 
	C29.515232,24.250816 28.229034,24.647165 26.311344,24.838659 
	C25.840826,25.208981 25.370306,25.579300 24.219969,26.367796 
	C23.771309,27.754959 22.949612,29.138525 22.936190,30.529888 
	C22.863918,38.021786 22.992403,45.515621 22.924858,53.582336 
	C22.931078,53.778034 22.937300,53.973728 22.955481,55.085514 
	C22.970499,86.910721 22.985743,118.735924 23.000374,150.561127 
	C23.004087,158.639252 24.369932,159.982391 32.647427,159.985870 
	C70.304642,160.001724 107.961861,160.012878 145.933716,160.653290 
	C148.442444,163.302505 150.905533,165.996857 153.469452,168.591537 
	C158.750854,173.936264 158.773010,173.914368 165.167847,169.595993 
	C168.446838,167.381683 171.227280,168.394821 171.999420,172.085297 
	C173.658066,180.012756 173.658066,180.012756 181.635239,180.012970 
	C182.965958,180.013000 184.296692,180.013107 185.627411,180.012955 
	C192.962875,180.012115 192.962875,180.012100 194.409088,172.894974 
	C195.363724,168.197006 197.776703,167.143616 201.643127,169.736969 
	C207.821701,173.881149 207.821793,173.881271 212.936981,168.772247 
	C213.878510,167.831863 214.818695,166.890137 215.759583,165.949097 
	C221.474472,160.233368 221.474457,160.233383 217.211517,153.667145 
	C215.103226,150.419724 216.215759,147.706848 220.047516,146.931229 
	C228.519989,145.216217 227.809662,146.503876 227.873795,137.039719 
	C227.883942,135.542725 227.724960,134.027512 227.902664,132.551849 
	C228.498566,127.603180 227.145981,124.868736 221.422729,124.533035 
	C215.710770,124.197990 214.341980,120.896584 217.992813,116.729874 
	C221.538788,112.682831 221.366348,109.734352 217.170273,106.485641 
	C214.821869,104.667458 213.026794,102.144897 210.727142,100.249413 
	C209.432953,99.182686 207.619736,98.745644 205.426163,97.447220 
	C205.279831,87.722557 205.177719,77.996933 204.968231,68.273628 
	C204.866013,63.528461 204.563690,58.787601 204.306305,53.492458 
	C204.241364,53.319511 204.176422,53.146561 204.320099,52.058949 
z"/>
<path fill="#E9EDF1" opacity="1.000000" stroke="none" 
	d="
M145.619080,160.025726 
	C107.961861,160.012878 70.304642,160.001724 32.647427,159.985870 
	C24.369932,159.982391 23.004087,158.639252 23.000374,150.561127 
	C22.985743,118.735924 22.970499,86.910721 23.224304,54.699928 
	C23.675854,54.264282 23.858582,54.214214 24.498308,54.266876 
	C83.300163,54.383976 141.645020,54.399578 199.989868,54.402317 
	C200.979324,54.402363 201.968781,54.246578 203.311829,54.194527 
	C203.894272,54.165298 204.123123,54.105045 204.351959,54.044788 
	C204.563690,58.787601 204.866013,63.528461 204.968231,68.273628 
	C205.177719,77.996933 205.279831,87.722557 205.546783,98.018951 
	C204.315338,99.558220 202.987946,100.562614 201.606491,101.486198 
	C197.911209,103.956711 195.394028,102.943726 194.406967,98.623009 
	C192.700623,91.153770 192.700623,91.153770 184.892288,91.153633 
	C183.559402,91.153610 182.226517,91.153496 180.893631,91.153648 
	C173.404282,91.154503 173.404282,91.154526 172.044159,98.404022 
	C171.237946,102.701195 168.710159,103.887619 165.213913,101.609848 
	C158.737717,97.390656 158.737701,97.390656 153.204056,102.923592 
	C152.379333,103.748222 151.549896,104.568214 150.730835,105.398430 
	C144.669479,111.542336 144.278122,110.548157 149.235382,117.512505 
	C151.542618,120.753891 150.473572,123.348724 146.671814,124.345467 
	C138.922928,126.377052 138.922852,126.377068 138.922958,134.563644 
	C138.922989,136.896194 139.036942,139.235672 138.894836,141.559509 
	C138.723572,144.359985 139.590729,146.040924 142.678223,146.146500 
	C143.992737,146.191437 145.306122,146.560608 146.599869,146.867416 
	C150.557266,147.805908 151.541351,150.313904 149.391388,153.653610 
	C148.056244,155.727615 146.871399,157.898392 145.619080,160.025726 
M115.501686,110.096474 
	C115.665955,110.055870 115.830231,110.015266 116.654755,110.147057 
	C117.103622,110.095711 117.552498,110.044373 118.613396,110.016235 
	C118.757248,109.673950 118.901100,109.331657 119.213783,108.066032 
	C119.148819,99.045258 119.083855,90.024483 119.039017,80.442062 
	C118.702751,80.345139 118.366493,80.248207 117.150940,80.015968 
	C114.915527,79.614853 113.993301,80.277069 114.049797,82.807999 
	C114.244293,91.521271 114.186691,100.240173 114.114433,109.505791 
	C114.413765,109.657570 114.713097,109.809341 115.501686,110.096474 
M69.365250,87.096901 
	C68.507744,85.114227 67.794991,83.051765 66.757042,81.168541 
	C65.378304,78.666969 61.034351,78.373245 59.891884,80.852829 
	C55.495770,90.394089 51.361042,100.055786 47.124535,109.682373 
	C51.010555,111.033852 53.155483,109.924065 54.044529,106.526031 
	C54.744896,103.849144 56.374847,102.822632 59.162197,103.081787 
	C61.637875,103.311974 64.174751,103.342270 66.643211,103.076401 
	C69.763046,102.740379 71.733421,103.730392 72.568924,106.836609 
	C73.529663,110.408409 75.785301,110.841309 79.170151,109.463814 
	C75.944931,102.032959 72.846054,94.893173 69.365250,87.096901 
M94.171524,79.314667 
	C90.890335,79.314667 87.609146,79.314667 84.142212,79.314667 
	C84.142212,89.820457 84.142212,99.742973 84.142212,109.650490 
	C88.214188,109.998299 88.214188,109.998299 89.643570,101.007889 
	C92.318710,101.007889 95.125885,101.207848 97.895348,100.969551 
	C105.524544,100.313087 109.424217,94.855591 107.762375,87.409195 
	C106.588760,82.150475 103.595573,80.241951 94.171524,79.314667 
z"/>
<path fill="#454A67" opacity="1.000000" stroke="none" 
	d="
M202.958237,54.163509 
	C201.968781,54.246578 200.979324,54.402363 199.989868,54.402317 
	C141.645020,54.399578 83.300163,54.383976 24.399975,54.021797 
	C23.580297,53.452259 23.315954,53.230522 23.051609,53.008789 
	C22.992403,45.515621 22.863918,38.021786 22.936190,30.529888 
	C22.949612,29.138525 23.771309,27.754959 24.871161,26.146486 
	C25.995813,25.569771 26.469275,25.214365 26.942736,24.858961 
	C28.229034,24.647165 29.515232,24.250816 30.801643,24.250126 
	C86.319427,24.220284 141.837219,24.224821 197.355011,24.235281 
	C198.013351,24.235405 198.671646,24.367136 199.871979,24.900219 
	C201.018265,25.534637 201.622528,25.706274 202.226807,25.877911 
	C202.740707,26.410336 203.254608,26.942760 203.647675,27.866848 
	C203.674606,28.503878 203.822357,28.749245 203.970108,28.994614 
	C204.086761,36.682728 204.203430,44.370838 203.957092,52.641674 
	C203.382126,53.537437 203.170181,53.850475 202.958237,54.163509 
M192.493362,38.000664 
	C191.351410,34.677380 188.848282,33.489799 185.531433,33.492088 
	C162.907913,33.507702 140.284332,33.482807 117.660927,33.540310 
	C113.815674,33.550083 111.107834,35.469406 111.175903,39.515755 
	C111.243912,43.558025 113.927040,45.250164 117.850777,45.247189 
	C140.475937,45.230026 163.101105,45.232452 185.726273,45.249645 
	C190.122314,45.252987 192.615128,43.304855 192.493362,38.000664 
M74.104881,40.266651 
	C74.408714,36.271442 72.684753,32.996643 68.888695,32.417252 
	C66.381424,32.034569 62.756630,33.090588 61.087723,34.868649 
	C59.623936,36.428177 59.123928,40.456738 60.138199,42.361931 
	C61.277477,44.501930 64.460770,46.380577 66.993568,46.754139 
	C70.607658,47.287174 73.004456,44.634666 74.104881,40.266651 
M38.772705,45.956917 
	C44.460060,47.877167 49.020550,45.780109 49.872791,40.748657 
	C50.547264,36.766716 48.770538,33.854282 45.169834,32.426922 
	C41.760262,31.075331 38.483952,31.956915 36.390472,35.057487 
	C33.775059,38.931087 34.480099,42.552242 38.772705,45.956917 
z"/>
<path fill="#02BFF3" opacity="1.000000" stroke="none" 
	d="
M145.776398,160.339508 
	C146.871399,157.898392 148.056244,155.727615 149.391388,153.653610 
	C151.541351,150.313904 150.557266,147.805908 146.599869,146.867416 
	C145.306122,146.560608 143.992737,146.191437 142.678223,146.146500 
	C139.590729,146.040924 138.723572,144.359985 138.894836,141.559509 
	C139.036942,139.235672 138.922989,136.896194 138.922958,134.563644 
	C138.922852,126.377068 138.922928,126.377052 146.671814,124.345467 
	C150.473572,123.348724 151.542618,120.753891 149.235382,117.512505 
	C144.278122,110.548157 144.669479,111.542336 150.730835,105.398430 
	C151.549896,104.568214 152.379333,103.748222 153.204056,102.923592 
	C158.737701,97.390656 158.737717,97.390656 165.213913,101.609848 
	C168.710159,103.887619 171.237946,102.701195 172.044159,98.404022 
	C173.404282,91.154526 173.404282,91.154503 180.893631,91.153648 
	C182.226517,91.153496 183.559402,91.153610 184.892288,91.153633 
	C192.700623,91.153770 192.700623,91.153770 194.406967,98.623009 
	C195.394028,102.943726 197.911209,103.956711 201.606491,101.486198 
	C202.987946,100.562614 204.315338,99.558220 205.853867,98.307800 
	C207.619736,98.745644 209.432953,99.182686 210.727142,100.249413 
	C213.026794,102.144897 214.821869,104.667458 217.170273,106.485641 
	C221.366348,109.734352 221.538788,112.682831 217.992813,116.729874 
	C214.341980,120.896584 215.710770,124.197990 221.422729,124.533035 
	C227.145981,124.868736 228.498566,127.603180 227.902664,132.551849 
	C227.724960,134.027512 227.883942,135.542725 227.873795,137.039719 
	C227.809662,146.503876 228.519989,145.216217 220.047516,146.931229 
	C216.215759,147.706848 215.103226,150.419724 217.211517,153.667145 
	C221.474457,160.233383 221.474472,160.233368 215.759583,165.949097 
	C214.818695,166.890137 213.878510,167.831863 212.936981,168.772247 
	C207.821793,173.881271 207.821701,173.881149 201.643127,169.736969 
	C197.776703,167.143616 195.363724,168.197006 194.409088,172.894974 
	C192.962875,180.012100 192.962875,180.012115 185.627411,180.012955 
	C184.296692,180.013107 182.965958,180.013000 181.635239,180.012970 
	C173.658066,180.012756 173.658066,180.012756 171.999420,172.085297 
	C171.227280,168.394821 168.446838,167.381683 165.167847,169.595993 
	C158.773010,173.914368 158.750854,173.936264 153.469452,168.591537 
	C150.905533,165.996857 148.442444,163.302505 145.776398,160.339508 
M191.579010,112.750786 
	C180.339890,107.352943 165.106491,114.403091 160.390366,126.627029 
	C155.443451,139.449203 161.927795,153.865875 174.063126,158.477127 
	C186.893875,163.352631 200.968430,157.226929 206.217163,144.482635 
	C211.276794,132.197464 205.183472,118.359985 191.579010,112.750786 
z"/>
<path fill="#5F647B" opacity="1.000000" stroke="none" 
	d="
M202.060287,25.598669 
	C201.622528,25.706274 201.018265,25.534637 200.242538,25.087517 
	C200.678650,24.981163 201.286209,25.150295 202.060287,25.598669 
z"/>
<path fill="#5F647B" opacity="1.000000" stroke="none" 
	d="
M26.627041,24.848810 
	C26.469275,25.214365 25.995813,25.569771 25.211071,25.937399 
	C25.370306,25.579300 25.840826,25.208981 26.627041,24.848810 
z"/>
<path fill="#3A3F5E" opacity="1.000000" stroke="none" 
	d="
M204.003326,28.742960 
	C203.822357,28.749245 203.674606,28.503878 203.663727,28.150158 
	C203.879257,28.191639 203.957901,28.341475 204.003326,28.742960 
z"/>
<path fill="#3A3F5E" opacity="1.000000" stroke="none" 
	d="
M203.311829,54.194530 
	C203.170181,53.850475 203.382126,53.537437 203.852783,53.099007 
	C204.176422,53.146561 204.241364,53.319511 204.329132,53.768623 
	C204.123123,54.105045 203.894272,54.165298 203.311829,54.194530 
z"/>
<path fill="#3A3F5E" opacity="1.000000" stroke="none" 
	d="
M22.988234,53.295563 
	C23.315954,53.230522 23.580297,53.452259 23.942974,53.919067 
	C23.858582,54.214214 23.675854,54.264282 23.218325,54.241886 
	C22.937300,53.973728 22.931078,53.778034 22.988234,53.295563 
z"/>
<path fill="#464B68" opacity="1.000000" stroke="none" 
	d="
M69.556213,87.425140 
	C72.846054,94.893173 75.944931,102.032959 79.170151,109.463814 
	C75.785301,110.841309 73.529663,110.408409 72.568924,106.836609 
	C71.733421,103.730392 69.763046,102.740379 66.643211,103.076401 
	C64.174751,103.342270 61.637875,103.311974 59.162197,103.081787 
	C56.374847,102.822632 54.744896,103.849144 54.044529,106.526031 
	C53.155483,109.924065 51.010555,111.033852 47.124535,109.682373 
	C51.361042,100.055786 55.495770,90.394089 59.891884,80.852829 
	C61.034351,78.373245 65.378304,78.666969 66.757042,81.168541 
	C67.794991,83.051765 68.507744,85.114227 69.556213,87.425140 
M65.054214,98.668266 
	C66.144852,98.579239 67.235481,98.490211 68.811707,98.361542 
	C66.935341,94.090790 65.263939,90.286583 63.196968,85.582008 
	C61.153332,90.296997 59.491642,94.130775 57.525105,98.667877 
	C60.330429,98.667877 62.281082,98.667877 65.054214,98.668266 
z"/>
<path fill="#464C68" opacity="1.000000" stroke="none" 
	d="
M94.621185,79.315735 
	C103.595573,80.241951 106.588760,82.150475 107.762375,87.409195 
	C109.424217,94.855591 105.524544,100.313087 97.895348,100.969551 
	C95.125885,101.207848 92.318710,101.007889 89.643570,101.007889 
	C88.214188,109.998299 88.214188,109.998299 84.142212,109.650490 
	C84.142212,99.742973 84.142212,89.820457 84.142212,79.314667 
	C87.609146,79.314667 90.890335,79.314667 94.621185,79.315735 
M101.090942,94.710014 
	C101.279671,91.951256 102.667992,88.312843 101.418427,86.608772 
	C98.407425,82.502617 93.547119,84.035324 89.024765,84.425690 
	C89.024765,86.794296 89.024757,88.769424 89.024757,90.744545 
	C89.024757,92.638779 89.024765,94.533012 89.024765,97.293152 
	C93.472206,96.495361 96.982246,95.865723 101.090942,94.710014 
z"/>
<path fill="#444966" opacity="1.000000" stroke="none" 
	d="
M114.225136,108.956932 
	C114.186691,100.240173 114.244293,91.521271 114.049797,82.807999 
	C113.993301,80.277069 114.915527,79.614853 117.702682,80.279617 
	C118.461609,80.775826 118.716431,80.929298 119.018883,81.003708 
	C119.083855,90.024483 119.148819,99.045258 118.899467,108.630051 
	C118.390556,109.460388 118.195953,109.726707 118.001358,109.993027 
	C117.552498,110.044373 117.103622,110.095711 116.220970,109.845490 
	C115.591583,109.276588 115.335121,109.095360 114.819534,108.991318 
	C114.621262,108.982376 114.225136,108.956932 114.225136,108.956932 
z"/>
<path fill="#393F5E" opacity="1.000000" stroke="none" 
	d="
M119.028946,80.722885 
	C118.716431,80.929298 118.461609,80.775826 118.142319,80.347275 
	C118.366493,80.248207 118.702751,80.345139 119.028946,80.722885 
z"/>
<path fill="#5F647C" opacity="1.000000" stroke="none" 
	d="
M114.169785,109.231361 
	C114.225136,108.956932 114.621262,108.982376 114.809685,109.231476 
	C114.998108,109.480576 115.012428,109.961121 115.012428,109.961121 
	C114.713097,109.809341 114.413765,109.657570 114.169785,109.231361 
z"/>
<path fill="#393F5E" opacity="1.000000" stroke="none" 
	d="
M115.257057,110.028793 
	C115.012428,109.961121 114.998108,109.480576 115.007950,109.240417 
	C115.335121,109.095360 115.591583,109.276588 115.890839,109.759300 
	C115.830231,110.015266 115.665955,110.055870 115.257057,110.028793 
z"/>
<path fill="#393F5E" opacity="1.000000" stroke="none" 
	d="
M118.307373,110.004623 
	C118.195953,109.726707 118.390556,109.460388 118.815048,109.091721 
	C118.901100,109.331657 118.757248,109.673950 118.307373,110.004623 
z"/>
<path fill="#E0E5E9" opacity="1.000000" stroke="none" 
	d="
M192.604477,38.370880 
	C192.615128,43.304855 190.122314,45.252987 185.726273,45.249645 
	C163.101105,45.232452 140.475937,45.230026 117.850777,45.247189 
	C113.927040,45.250164 111.243912,43.558025 111.175903,39.515755 
	C111.107834,35.469406 113.815674,33.550083 117.660927,33.540310 
	C140.284332,33.482807 162.907913,33.507702 185.531433,33.492088 
	C188.848282,33.489799 191.351410,34.677380 192.604477,38.370880 
z"/>
<path fill="#FACF04" opacity="1.000000" stroke="none" 
	d="
M74.059372,40.665638 
	C73.004456,44.634666 70.607658,47.287174 66.993568,46.754139 
	C64.460770,46.380577 61.277477,44.501930 60.138199,42.361931 
	C59.123928,40.456738 59.623936,36.428177 61.087723,34.868649 
	C62.756630,33.090588 66.381424,32.034569 68.888695,32.417252 
	C72.684753,32.996643 74.408714,36.271442 74.059372,40.665638 
z"/>
<path fill="#F75624" opacity="1.000000" stroke="none" 
	d="
M38.434406,45.757881 
	C34.480099,42.552242 33.775059,38.931087 36.390472,35.057487 
	C38.483952,31.956915 41.760262,31.075331 45.169834,32.426922 
	C48.770538,33.854282 50.547264,36.766716 49.872791,40.748657 
	C49.020550,45.780109 44.460060,47.877167 38.434406,45.757881 
z"/>
<path fill="#08A2CC" opacity="1.000000" stroke="none" 
	d="
M191.957275,112.854660 
	C205.183472,118.359985 211.276794,132.197464 206.217163,144.482635 
	C200.968430,157.226929 186.893875,163.352631 174.063126,158.477127 
	C161.927795,153.865875 155.443451,139.449203 160.390366,126.627029 
	C165.106491,114.403091 180.339890,107.352943 191.957275,112.854660 
M195.263367,148.817947 
	C201.758621,141.710892 202.908249,133.120926 198.302170,126.112099 
	C193.774689,119.222878 185.254501,116.207932 177.842255,118.772858 
	C170.248779,121.400490 166.021606,126.930283 165.498917,134.661667 
	C165.033463,141.546570 168.033829,147.398392 174.224396,150.874466 
	C181.259735,154.824951 188.204636,154.205444 195.263367,148.817947 
z"/>
<path fill="#DADDE3" opacity="1.000000" stroke="none" 
	d="
M64.642975,98.668076 
	C62.281082,98.667877 60.330429,98.667877 57.525105,98.667877 
	C59.491642,94.130775 61.153332,90.296997 63.196968,85.582008 
	C65.263939,90.286583 66.935341,94.090790 68.811707,98.361542 
	C67.235481,98.490211 66.144852,98.579239 64.642975,98.668076 
z"/>
<path fill="#E4E7EC" opacity="1.000000" stroke="none" 
	d="
M100.791611,94.973053 
	C96.982246,95.865723 93.472206,96.495361 89.024765,97.293152 
	C89.024765,94.533012 89.024757,92.638779 89.024757,90.744545 
	C89.024757,88.769424 89.024765,86.794296 89.024765,84.425690 
	C93.547119,84.035324 98.407425,82.502617 101.418427,86.608772 
	C102.667992,88.312843 101.279671,91.951256 100.791611,94.973053 
z"/>
<path fill="#E9EDF2" opacity="1.000000" stroke="none" 
	d="
M194.971436,149.046188 
	C188.204636,154.205444 181.259735,154.824951 174.224396,150.874466 
	C168.033829,147.398392 165.033463,141.546570 165.498917,134.661667 
	C166.021606,126.930283 170.248779,121.400490 177.842255,118.772858 
	C185.254501,116.207932 193.774689,119.222878 198.302170,126.112099 
	C202.908249,133.120926 201.758621,141.710892 194.971436,149.046188 
z"/>
</svg>